<?xml version="1.0" standalone="no"?>
<!DOCTYPE svg PUBLIC "-//W3C//DTD SVG 20010904//EN"
 "http://www.w3.org/TR/2001/REC-SVG-20010904/DTD/svg10.dtd">
<svg version="1.0" xmlns="http://www.w3.org/2000/svg"
 width="1280.000000pt" height="602.000000pt" viewBox="0 0 1280.000000 602.000000"
 preserveAspectRatio="xMidYMid meet">
<metadata>
Created by potrace 1.15, written by Peter Selinger 2001-2017
</metadata>
<g transform="translate(0.000000,602.000000) scale(0.100000,-0.100000)"
fill="#000000" stroke="none">
<path d="M0 3010 l0 -3010 6400 0 6400 0 0 3010 0 3010 -6400 0 -6400 0 0
-3010z m10658 1594 c12 -14 22 -31 22 -38 0 -9 13 -13 41 -12 67 1 103 -60 76
-127 -20 -45 -61 -67 -151 -78 -39 -5 -77 -11 -86 -14 -16 -5 -18 -1 -56 139
-19 67 -5 120 39 147 40 25 84 19 115 -17z m-388 -189 c66 -33 141 -109 166
-169 l18 -44 73 -4 c319 -21 449 -404 222 -652 -59 -65 -112 -98 -197 -121
-160 -45 -343 37 -412 185 l-22 47 -70 6 c-319 27 -454 406 -231 648 98 105
180 141 313 135 68 -3 96 -9 140 -31z m-582 -761 c350 -71 548 -385 529 -842
-12 -286 -104 -494 -277 -627 -118 -91 -233 -125 -426 -125 -293 0 -490 118
-609 365 -53 110 -74 196 -85 334 -23 322 47 560 214 727 83 83 197 144 311
168 94 19 248 20 343 0z m-7220 -81 c11 -43 79 -294 151 -558 71 -264 142
-529 156 -590 15 -60 29 -117 32 -125 2 -8 24 62 48 155 23 94 71 269 105 390
34 121 99 351 144 510 l82 290 64 0 63 0 34 -115 c68 -238 333 -1167 344
-1210 l12 -45 9 40 c12 49 127 484 202 765 31 113 77 286 104 385 l48 180 58
3 58 3 -6 -28 c-4 -15 -29 -107 -56 -203 -26 -96 -65 -236 -85 -310 -20 -74
-43 -155 -50 -180 -7 -25 -29 -103 -49 -175 -41 -152 -174 -632 -182 -657 -4
-14 -16 -18 -53 -18 l-48 0 -66 233 c-36 127 -125 438 -196 691 -72 252 -131
467 -131 477 0 34 -17 20 -23 -18 -7 -40 -111 -423 -242 -888 -42 -148 -90
-321 -107 -383 l-32 -113 -50 3 -50 3 -52 190 c-28 105 -91 332 -139 505 -135
493 -235 859 -235 865 0 3 26 5 58 5 l59 0 21 -77z m2852 27 l0 -50 -375 0
-375 0 0 -295 0 -295 350 0 350 0 0 -55 0 -55 -350 0 -350 0 0 -335 0 -335
375 0 375 0 0 -50 0 -50 -435 0 -435 0 0 785 0 785 435 0 435 0 0 -50z m1035
21 c254 -69 406 -217 477 -465 20 -73 23 -101 22 -281 0 -174 -3 -210 -22
-279 -36 -131 -87 -221 -172 -307 -86 -86 -168 -133 -305 -175 -88 -27 -98
-28 -387 -32 l-298 -4 0 787 0 787 303 -4 c270 -5 311 -7 382 -27z m975 -701
l0 -730 373 -2 372 -3 3 -52 3 -53 -430 0 -431 0 0 785 0 785 55 0 55 0 0
-730z m1130 -55 l0 -785 -60 0 -60 0 0 785 0 785 60 0 60 0 0 -785z m2180
-1239 l0 -103 -54 -2 c-46 -1 -57 3 -70 21 -41 58 -3 135 60 125 33 -6 34 -5
34 29 0 24 5 34 15 34 12 0 15 -18 15 -104z m170 0 l0 -103 -54 -2 c-46 -1
-57 3 -70 21 -23 32 -20 80 5 107 17 18 29 22 55 18 33 -6 34 -5 34 29 0 24 5
34 15 34 12 0 15 -18 15 -104z m-2654 38 c43 -8 56 -103 18 -134 -7 -7 -30
-10 -49 -8 -35 4 -35 4 -35 -34 0 -27 -4 -38 -15 -38 -12 0 -15 19 -15 108 l0
108 38 1 c20 1 47 0 58 -3z m1094 -14 c24 -24 26 -77 4 -108 -21 -31 -87 -31
-108 0 -38 54 -6 128 54 128 17 0 39 -9 50 -20z m473 3 c33 -37 30 -101 -7
-125 -20 -13 -69 -8 -88 9 -27 24 -25 97 4 117 30 21 71 20 91 -1z m1487 7 c0
-5 -4 -10 -10 -10 -5 0 -10 -13 -10 -30 0 -31 -22 -50 -60 -50 -35 0 -17 -25
21 -28 40 -4 59 -18 59 -43 0 -39 -75 -63 -121 -39 -19 11 -26 54 -10 64 12 8
20 55 10 62 -16 10 -10 63 9 73 22 13 112 14 112 1z"/>
<path d="M10053 4359 c-95 -17 -179 -83 -225 -177 -29 -59 -33 -76 -33 -147 0
-67 5 -88 27 -130 47 -89 125 -144 219 -152 l56 -6 5 71 c10 132 109 284 219
334 27 12 49 25 49 30 0 12 -44 79 -71 107 -50 53 -162 85 -246 70z"/>
<path d="M10470 4057 c0 -133 -97 -285 -222 -348 -24 -12 -44 -23 -46 -24 -10
-9 43 -88 79 -118 74 -64 187 -85 279 -52 56 20 134 79 164 126 59 88 70 217
28 310 -40 90 -142 159 -234 159 l-48 0 0 -53z"/>
<path d="M10332 4063 c-48 -33 -98 -93 -123 -148 -18 -41 -36 -145 -25 -145 3
0 23 11 44 24 52 33 110 99 133 154 24 54 37 142 22 142 -6 0 -28 -12 -51 -27z"/>
<path d="M9376 3548 c-27 -5 -83 -24 -123 -43 -203 -94 -313 -318 -313 -638 0
-243 55 -417 170 -541 106 -113 228 -159 415 -159 287 1 466 144 542 430 23
87 25 117 25 268 0 151 -2 181 -25 268 -48 183 -139 304 -278 370 -40 19 -101
40 -133 46 -71 13 -211 13 -280 -1z"/>
<path d="M5780 2864 l0 -686 213 5 c235 6 310 18 416 67 94 44 163 102 215
178 83 123 124 304 113 502 -11 198 -65 340 -171 445 -129 130 -293 174 -643
175 l-143 0 0 -686z"/>
</g>
</svg>
